<svg xmlns="http://www.w3.org/2000/svg" viewBox="0 0 275.48 91.14"><defs><style>.cls-1{fill:#0aa8df;}.cls-1,.cls-2{fill-rule:evenodd;}.cls-2{fill:#6b809b;}</style></defs><g id="Layer_2" data-name="Layer 2"><g id="Layer_1-2" data-name="Layer 1"><path class="cls-1" d="M73.5,63.94C85.41,60,94.35,50.77,94,37.67A28.73,28.73,0,0,0,79.63,13.83a25,25,0,0,0-21.4-1.68C50.88,3.08,37.91-1.83,26.64.64,12.26,3.79,1.33,14.23.11,29.27A32.91,32.91,0,0,0,26,64c5.19,1.13,10.78.78,16.07.79,4.64,0,9.3.13,14,.16,4.39,0,13.47.3,17.48-1ZM55.13,24.23c22.62-18,45.58,21.22,15.55,31.17-3,.94-23.82.42-28.6.41-4.25,0-10.14.3-14.16-.58C4.21,50,1,15.46,28.56,9.41,38.83,7.16,52.22,14.09,54.7,24.69l.43-.46Z"></path><path class="cls-1" d="M35.65,45.62l33.53-8.88c3-.81,3.27-1.63,3.27-1.64s-.13-.47-.67-.93c-2.17-1.84-5.27-2.24-9.23-1.2L51.72,35.84,37.25,25l-3.39-.46,9.3,13.57L31.42,41.31l-7.89-4.74-2.26.6,3.58,6.55-1,.58a4,4,0,0,0-.77.56c.45.36,1.89,1,4.75,1.2a24.77,24.77,0,0,0,7.78-.44Z"></path><path class="cls-1" d="M109.15,28.18V61.3h14.9a16.3,16.3,0,0,0,5.72-.91A8.21,8.21,0,0,0,133.38,58a10.19,10.19,0,0,0,1.75-3,9.33,9.33,0,0,0,.55-3.18q0-4.82-5.5-8a12.26,12.26,0,0,0,3.5-3.13,6.39,6.39,0,0,0,1-3.68,7.59,7.59,0,0,0-.5-2.68,10.55,10.55,0,0,0-1.61-2.8,7.82,7.82,0,0,0-3.36-2.33,14.14,14.14,0,0,0-5.34-.91H109.15Zm14.22,13.18H116v-7.5h7.41q4.81,0,4.81,3.77C128.18,40.11,126.58,41.36,123.37,41.36ZM116,55.62V47h8.13q5.05,0,5,4.32t-5,4.27Z"></path><polygon class="cls-1" points="138.81 28.18 138.81 61.3 145.17 61.3 145.17 28.18 138.81 28.18"></polygon><path class="cls-1" d="M148.58,36.77V53.85a8.61,8.61,0,0,0,2.16,6.26,8,8,0,0,0,6.06,2.23,8.38,8.38,0,0,0,7.36-4v2.9h6.35V36.77h-6.35V52.12a4.57,4.57,0,0,1-1.41,3.5A5.27,5.27,0,0,1,159,56.93c-2.72,0-4.08-1.46-4.08-4.4V36.77Z"></path><path class="cls-1" d="M174.83,39.93q-3,3.56-3,9.74,0,5.91,3,9.29A10.41,10.41,0,0,0,183,62.34a12.29,12.29,0,0,0,7.22-2.16,10.26,10.26,0,0,0,4.13-5.79h-6.27a4.72,4.72,0,0,1-4.86,3.09,5.56,5.56,0,0,1-2.56-.52,3.57,3.57,0,0,1-1.55-1.5,7.29,7.29,0,0,1-.72-2,14.56,14.56,0,0,1-.25-2.43h16.44c0-.36,0-.73,0-1.09a19.58,19.58,0,0,0-.72-5.56A11.88,11.88,0,0,0,192,40.47,10.31,10.31,0,0,0,189.3,38a11.34,11.34,0,0,0-3.07-1.32,13.19,13.19,0,0,0-3.09-.36A10.35,10.35,0,0,0,174.83,39.93Zm3.41,6.88c.42-3.73,2-5.59,4.81-5.59a4.37,4.37,0,0,1,3.48,1.45A7.14,7.14,0,0,1,188,46.81Z"></path><path class="cls-1" d="M203.35,37.81a7.8,7.8,0,0,0,2.13,5.91c1.42,1.36,3.83,2.34,7.18,3l4.63.91a12.11,12.11,0,0,1,4.82,1.73,4,4,0,0,1-.39,6.36,10.79,10.79,0,0,1-10.24-.23,5.24,5.24,0,0,1-2.09-4.09h-6.63a10.63,10.63,0,0,0,3.84,8.13q3.51,2.82,9.87,2.82t10-2.84a9.48,9.48,0,0,0,3.58-7.88A8.35,8.35,0,0,0,228,45.56c-1.39-1.44-3.61-2.48-6.67-3.07l-5.18-1a14.6,14.6,0,0,1-5-1.61,3,3,0,0,1-1.32-2.7,3.5,3.5,0,0,1,1.54-3,7,7,0,0,1,4.18-1.11q6.58,0,6.95,5.17h6.36A10.92,10.92,0,0,0,228,33.7a8.45,8.45,0,0,0-2.2-3.09,10.87,10.87,0,0,0-3.13-1.82,15.48,15.48,0,0,0-3.43-.93,25.78,25.78,0,0,0-3.34-.22q-6,0-9.24,2.65a9.1,9.1,0,0,0-3.3,7.52Z"></path><path class="cls-1" d="M231.83,28.18V61.3h6.36v-8l2.54-2.77,5.86,10.81H254L245.09,46,252,38.35l8.56,23.94v.19a4,4,0,0,1-1.13,2.9,3.75,3.75,0,0,1-2.82,1.18,6.71,6.71,0,0,1-1.68-.27v4.77a16.36,16.36,0,0,0,2.27.18,19,19,0,0,0,2.09-.11,7.55,7.55,0,0,0,1.68-.39c.49-.18.92-.35,1.3-.52a3.25,3.25,0,0,0,1-.73c.3-.31.54-.56.73-.72a2.58,2.58,0,0,0,.52-.82c.16-.38.29-.64.36-.77a4.72,4.72,0,0,0,.3-.77,6.42,6.42,0,0,0,.18-.62l10.08-29h-6.54l-5.08,17.85-5.41-17.85H246.23l-8,9.54V28.19h-6.36Z"></path><polygon class="cls-2" points="63.26 91.04 63.26 80.44 67.36 80.44 67.36 79.37 57.92 79.37 57.92 80.44 62.02 80.44 62.02 91.04 63.26 91.04"></polygon><path class="cls-2" d="M72.1,79.37V91h1.23v-3.7h3.13c.32,0,.64,0,.94,0L80.06,91h1.35l-2.85-4a3.61,3.61,0,0,0,2.67-3.67A3.61,3.61,0,0,0,80,80.44a5.27,5.27,0,0,0-3.5-1.07Zm1.23,6.92V80.44h3.1a4,4,0,0,1,2.65.76,3,3,0,0,1,0,4.32,4,4,0,0,1-2.65.77Z"></path><path class="cls-2" d="M90.39,79.37,85.05,91h1.29l1.4-3.12h6.5L95.64,91h1.3L91.6,79.37Zm-2.2,7.55L91,80.66l2.8,6.26Z"></path><polygon class="cls-2" points="99.19 79.37 104.36 91.04 105.58 91.04 110.74 79.37 109.49 79.37 104.99 89.5 100.53 79.37 99.19 79.37"></polygon><polygon class="cls-2" points="115.2 79.37 115.2 91.04 123.45 91.04 123.45 89.97 116.44 89.97 116.44 85.64 122.47 85.64 122.47 84.59 116.44 84.59 116.44 80.44 123.2 80.44 123.2 79.37 115.2 79.37"></polygon><polygon class="cls-2" points="129.13 79.37 129.13 91.04 136.89 91.04 136.89 89.97 130.36 89.97 130.36 79.37 129.13 79.37"></polygon><path class="cls-2" d="M153.4,87.92,154.8,91h1.3l-5.33-11.67h-1.22L144.22,91h1.28l1.4-3.12Zm-3.25-7.26,2.8,6.26h-5.6l2.8-6.26Z"></path><path class="cls-2" d="M159.61,85.21a5.92,5.92,0,0,0,.8,3,5.68,5.68,0,0,0,2.2,2.12,6.44,6.44,0,0,0,3.15.77,7.37,7.37,0,0,0,2.35-.38,5.89,5.89,0,0,0,1.93-1.1V85.21h-1.18v3.93a5.07,5.07,0,0,1-3.05.9,5.18,5.18,0,0,1-2.55-.63,4.73,4.73,0,0,1-2.43-4.2,4.76,4.76,0,0,1,.65-2.48A4.65,4.65,0,0,1,163.27,81a5.19,5.19,0,0,1,2.56-.62,4.78,4.78,0,0,1,3.51,1.36l.77-.78a4.8,4.8,0,0,0-1.88-1.26,6.93,6.93,0,0,0-2.45-.42,6.49,6.49,0,0,0-3.17.76,5.63,5.63,0,0,0-2.2,2.13,5.9,5.9,0,0,0-.8,3Z"></path><polygon class="cls-2" points="176.3 79.37 176.3 91.04 184.55 91.04 184.55 89.97 177.53 89.97 177.53 85.64 183.56 85.64 183.56 84.59 177.53 84.59 177.53 80.44 184.3 80.44 184.3 79.37 176.3 79.37"></polygon><polygon class="cls-2" points="190.22 79.37 190.22 91.04 191.46 91.04 191.46 81.57 198.96 91.04 199.97 91.04 199.97 79.37 198.76 79.37 198.76 88.84 191.24 79.37 190.22 79.37"></polygon><path class="cls-2" d="M205.52,85.21a5.92,5.92,0,0,0,.79,3,5.56,5.56,0,0,0,2.18,2.12,6.38,6.38,0,0,0,3.12.77A6.54,6.54,0,0,0,214,90.7a5.07,5.07,0,0,0,1.88-1.28l-.79-.78a4.6,4.6,0,0,1-3.45,1.4,5.06,5.06,0,0,1-2.51-.63,4.65,4.65,0,0,1-1.78-1.74,5.07,5.07,0,0,1,0-4.93A4.63,4.63,0,0,1,209.15,81a5,5,0,0,1,2.51-.64,4.62,4.62,0,0,1,3.45,1.39l.79-.79A5,5,0,0,0,214,79.71a6.75,6.75,0,0,0-5.53.33,5.58,5.58,0,0,0-2.19,2.12,5.92,5.92,0,0,0-.79,3Z"></path><polygon class="cls-2" points="219.17 79.37 223.84 87.01 223.84 91.04 225.06 91.04 225.06 87.01 229.72 79.37 228.49 79.37 224.49 85.92 220.49 79.37 219.17 79.37"></polygon></g></g></svg>